<svg width="1600" height="656" viewBox="0 0 1600 656" fill="none" xmlns="http://www.w3.org/2000/svg">
<path d="M15.5695 193.762C-186.579 225.625 -440.391 293.811 -440.391 293.811L-379.136 1044.85C-379.136 1044.85 -186.053 1135.11 -24.3857 1128.46C243.245 1117.47 429.344 957.63 697.084 941.258C994.407 923.077 1140.76 1012.4 1438.09 994.702C1616.94 984.057 1891.24 932.436 1891.24 932.436L1809.48 5.45256e-05C1809.48 5.45256e-05 1726.19 41.8834 1663.51 59.3554C1520.96 99.0904 1423.45 57.0944 1270.16 72.4576C994.021 100.133 869.322 206.256 592.419 225.798C362.496 242.024 241.792 158.105 15.5695 193.762Z" fill="#194484" fill-opacity="0.07"/>
</svg>
